<?xml version="1.0" standalone="no"?>
<!DOCTYPE svg PUBLIC "-//W3C//DTD SVG 20010904//EN"
 "http://www.w3.org/TR/2001/REC-SVG-20010904/DTD/svg10.dtd">
<svg version="1.0" xmlns="http://www.w3.org/2000/svg"
 width="512.000000pt" height="512.000000pt" viewBox="0 0 512.000000 512.000000"
 preserveAspectRatio="xMidYMid meet">
<metadata>
Created by potrace 1.11, written by Peter Selinger 2001-2013
</metadata>
<g transform="translate(0.000000,512.000000) scale(0.100000,-0.100000)"
fill="#000000" stroke="none">
<path d="M2420 5101 c-72 -26 -70 -21 -70 -149 l0 -117 -45 -18 c-24 -10 -59
-31 -77 -47 -31 -27 -32 -32 -35 -110 -3 -84 4 -108 41 -148 20 -23 21 -33 21
-297 l1 -273 -77 -31 c-243 -100 -427 -311 -456 -526 -4 -33 -8 -747 -8 -1587
l0 -1527 21 -28 c103 -139 431 -230 819 -227 178 1 243 7 391 35 234 45 406
138 426 231 9 45 5 3056 -5 3093 -41 163 -87 251 -182 348 -84 88 -174 146
-307 201 l-38 15 0 280 c0 260 1 281 18 293 32 22 43 56 45 133 1 92 -14 117
-98 161 l-60 30 -2 110 c-2 60 -5 114 -8 121 -16 43 -227 66 -315 34z"/>
</g>
</svg>
